<?xml version="1.0" encoding="UTF-8" standalone="no"?>
<svg
   viewBox="0 0 8.467 6.879"
   height="26"
   width="32"
   version="1.1"
   id="svg142"
   sodipodi:docname="building.svg"
   inkscape:version="1.2.2 (b0a84865, 2022-12-01)"
   inkscape:export-filename="../export/editor/building.png"
   inkscape:export-xdpi="192"
   inkscape:export-ydpi="192"
   xmlns:inkscape="http://www.inkscape.org/namespaces/inkscape"
   xmlns:sodipodi="http://sodipodi.sourceforge.net/DTD/sodipodi-0.dtd"
   xmlns="http://www.w3.org/2000/svg"
   xmlns:svg="http://www.w3.org/2000/svg">
  <defs
     id="defs146" />
  <sodipodi:namedview
     id="namedview144"
     pagecolor="#ffffff"
     bordercolor="#666666"
     borderopacity="1.0"
     inkscape:showpageshadow="2"
     inkscape:pageopacity="0.0"
     inkscape:pagecheckerboard="0"
     inkscape:deskcolor="#d1d1d1"
     showgrid="false"
     inkscape:zoom="9.0769231"
     inkscape:cx="16.635593"
     inkscape:cy="13.385593"
     inkscape:window-width="1401"
     inkscape:window-height="841"
     inkscape:window-x="0"
     inkscape:window-y="38"
     inkscape:window-maximized="0"
     inkscape:current-layer="svg142" />
  <path
     style="line-height:normal;font-variant-ligatures:normal;font-variant-position:normal;font-variant-caps:normal;font-variant-numeric:normal;font-variant-alternates:normal;font-variant-east-asian:normal;font-feature-settings:normal;font-variation-settings:normal;text-indent:0;text-align:start;text-decoration-line:none;text-decoration-style:solid;text-decoration-color:#000;text-transform:none;text-orientation:mixed;white-space:normal;shape-padding:0;shape-margin:0;inline-size:0;isolation:auto;mix-blend-mode:normal;solid-color:#000;solid-opacity:1"
     d="M4.23 0l-.996.487v.637l-.612-.35-1.005.514v.631l-.593-.304-1.003.467L0 4.726l4.214 2.107.08-.04 4.173-2.027v-2.62l-1.001-.535-.616.337v-.683L5.842.795l-.59.332V.465zm.006.403l.652.296v1.05l.97-.545.627.293v1.065l.982-.537.635.34v2.173L4.215 6.427.365 4.502l.017-2.187.633-.294.966.494V1.511l.63-.323.986.563V.714z"
     color="#000"
     font-weight="400"
     font-family="sans-serif"
     overflow="visible"
     id="path132" />
  <path
     d="M3.421.59v.809l.81.404V.994zm.81 1.213v1.618l.808.405.81.404v-.809l-.81-.404.81-.405v-.809l-.81-.404v.809zM1.802 1.4v.809l.81.404v-.809zm-1.618.809v2.427L4.23 6.658V4.23l-.809-.404v.81l-.809-.406v-.809l-.809-.404v.81L.994 3.42v-.809zm6.472 0v.809l.81.404v-.809z"
     fill="#939393"
     id="path134" />
  <path
     d="M4.23.185l-.809.404.81.405.808-.405zM2.612.994l-.809.405.81.404.808-.404zm.81.405v.809l.808-.405zm.808.404l.81.405v-.81zm.81-.404l.808.404.81-.404-.81-.405zm-4.046.404l-.809.405.81.404.808-.404zm.809.405v.809l.81.404.808-.404-.809-.405zm0 .809l-.809.404.809.405zm5.663-1.214l-.809.405.81.404.808-.404zm-.809.405l-.809.404-.809.405.81.404.808-.404zm0 .809v.81l.81-.406zm-2.427.404l-.809.405.81.404.808-.404zm.81.405v.81l.808-.406zm-1.619 0l-.809.404.81.405z"
     fill="#b9b9b9"
     id="path136" />
  <path
     d="M5.04.59l-.81.404v.81l.81-.405zm-.81 1.213l-.809.405v-.81l-.809.405v.81l.81.404-.81.404v.81l.81-.405.808-.405zM6.657 1.4l-.809.404v.81l.81-.405zm-4.854.809l-.809.404v.81l.809-.405zm6.472 0l-.809.404v.81l-.809.404v-.809l-.809.404v.81l-.809.404v-.809l-.809.404v2.428l4.045-2.023z"
     fill="#636363"
     id="path138" />
  <path
     d="M1.726 2.107l.077.1v.81l.81-.405.808.405v.809l.81-.405.808.405v-.81l.81-.404.808.405v-.81l.058-.09"
     fill="none"
     stroke="#000"
     stroke-width=".086"
     id="path140" />
</svg>
