<?xml version="1.0" encoding="UTF-8" standalone="no"?>
<svg
   xmlns:dc="http://purl.org/dc/elements/1.1/"
   xmlns:cc="http://creativecommons.org/ns#"
   xmlns:rdf="http://www.w3.org/1999/02/22-rdf-syntax-ns#"
   xmlns:svg="http://www.w3.org/2000/svg"
   xmlns="http://www.w3.org/2000/svg"
   xmlns:sodipodi="http://sodipodi.sourceforge.net/DTD/sodipodi-0.dtd"
   xmlns:inkscape="http://www.inkscape.org/namespaces/inkscape"
   inkscape:version="1.0 (4035a4f, 2020-05-01)"
   sodipodi:docname="path-draw.svg"
   id="svg8658"
   version="1.1"
   viewBox="0 0 8.467 7.673"
   height="29"
   width="32">
  <metadata
     id="metadata8664">
    <rdf:RDF>
      <cc:Work
         rdf:about="">
        <dc:format>image/svg+xml</dc:format>
        <dc:type
           rdf:resource="http://purl.org/dc/dcmitype/StillImage" />
        <dc:title></dc:title>
      </cc:Work>
    </rdf:RDF>
  </metadata>
  <defs
     id="defs8662" />
  <sodipodi:namedview
     inkscape:current-layer="svg8658"
     inkscape:window-maximized="0"
     inkscape:window-y="118"
     inkscape:window-x="107"
     inkscape:cy="14.5"
     inkscape:cx="13.964067"
     inkscape:zoom="6.8764531"
     showgrid="false"
     id="namedview8660"
     inkscape:window-height="686"
     inkscape:window-width="1407"
     inkscape:pageshadow="2"
     inkscape:pageopacity="0"
     guidetolerance="10"
     gridtolerance="10"
     objecttolerance="10"
     borderopacity="1"
     bordercolor="#666666"
     pagecolor="#ffffff" />
  <path
     sodipodi:nodetypes="cccc"
     id="path6083-3-5-7-0"
     d="M 8.3578529,3.2422943 V 4.8923931 L 4.2335019,6.955016 V 5.3049195"
     style="display:inline;fill:#837e4f;fill-opacity:1;stroke:none;stroke-width:0.218293px;stroke-linecap:butt;stroke-linejoin:miter;stroke-opacity:1" />
  <path
     sodipodi:nodetypes="ccccccccc"
     id="path6081-3-0-6-8"
     d="M 0.10914719,4.8923931 V 3.2422943 L 2.0918963,4.2564237 2.3101041,4.6212828 2.9075018,4.9093942 3.2024136,4.7892624 4.2335019,5.3049195 V 6.955016 Z"
     style="display:inline;fill:#9f9a66;fill-opacity:1;stroke:none;stroke-width:0.218293px;stroke-linecap:butt;stroke-linejoin:miter;stroke-opacity:1" />
  <path
     id="path6089-4-2-0-1"
     d="M 8.3578529,3.2422943 4.2335019,5.3049195 3.2323233,4.8038815 4.2411036,4.2938044 C 4.8214656,3.8874606 4.7905258,2.9996712 5.3440196,2.6713196 L 6.3751086,2.228167 Z"
     style="display:inline;fill:#82d431;fill-opacity:1;stroke:none;stroke-width:0.218293px;stroke-linecap:butt;stroke-linejoin:miter;stroke-opacity:1"
     sodipodi:nodetypes="ccccccc" />
  <path
     style="display:inline;fill:#448eb1;fill-opacity:1;stroke:none;stroke-width:0.21829299999999999px;stroke-linecap:butt;stroke-linejoin:miter;stroke-opacity:1"
     d="m 2.3101041,4.6212828 c 0,0 0.8082902,-0.4256322 1.2269621,-0.6580981 C 4.067252,3.6688019 4.0843826,2.7694077 4.6190239,2.4127501 4.9067896,2.2207821 5.3440467,2.0335075 5.3440467,2.0335075 l 0.6692518,0.3680899 c 0,0 -0.4089541,0.1635591 -0.6580976,0.3234706 C 4.8607751,3.0424154 4.7871036,3.9271181 4.2411036,4.2938044 3.8372131,4.5650524 2.9347395,4.9447536 2.9347395,4.9447536 Z"
     id="path9410"
     sodipodi:nodetypes="cssccsscc" />
  <path
     sodipodi:nodetypes="ccccccc"
     style="display:inline;fill:#82d431;fill-opacity:1;stroke:none;stroke-width:0.218293px;stroke-linecap:butt;stroke-linejoin:miter;stroke-opacity:1"
     d="M 0.10915181,3.2422965 4.2335019,1.1796716 5.2346826,1.6807091 4.3959394,2.055815 C 3.8155782,2.4621587 3.6764788,3.4849196 3.122985,3.8132712 L 2.0918963,4.2564237 Z"
     id="path6089-4-2-0-1-0" />
  <path
     style="display:inline;fill:#b9e78d;fill-opacity:1;stroke:none;stroke-width:0.21829299999999999px;stroke-linecap:butt;stroke-linejoin:miter;stroke-opacity:1"
     d="m 2.0918963,4.2564237 0.2182078,0.3648591 c 0,0 0.8074035,-0.4361999 1.1934993,-0.6246358 C 4.0265077,3.7414415 4.109789,2.6786847 4.6190239,2.4127501 5.0115957,2.2077411 5.5002058,2.0223527 5.5002058,2.0223527 L 5.2346826,1.6807091 c 0,0 -0.4585467,0.1555631 -0.8387432,0.3751059 C 3.8339438,2.3803377 3.6976434,3.4603375 3.2247485,3.7066388 2.8524781,3.9005299 2.0918963,4.2564237 2.0918963,4.2564237 Z"
     id="path9408"
     sodipodi:nodetypes="ccssccssc" />
  <path
     sodipodi:nodetypes="ccccccccccc"
     style="display:inline;fill:none;stroke:#000000;stroke-width:0.218293px;stroke-linecap:butt;stroke-linejoin:miter;stroke-opacity:1"
     d="M 8.3578529,3.2422943 V 4.8923931 L 4.2335019,6.955016 0.10914719,4.8923931 V 3.2422943 L 4.2335019,1.1796716 5.3203605,1.6953261 5.5002058,2.0223527 6.0074631,2.2941661 6.3451953,2.2693042 Z"
     id="path6115-5-9-0" />
</svg>
