<?xml version="1.0" encoding="UTF-8" standalone="no"?>
<svg
   width="32"
   height="29"
   viewBox="0 0 8.467 7.673"
   version="1.1"
   id="svg221"
   sodipodi:docname="raise-draw.svg"
   inkscape:export-filename="../../assets/editor/icons/raise-draw.png"
   inkscape:export-xdpi="192"
   inkscape:export-ydpi="192"
   inkscape:version="1.2.2 (b0a84865, 2022-12-01)"
   xmlns:inkscape="http://www.inkscape.org/namespaces/inkscape"
   xmlns:sodipodi="http://sodipodi.sourceforge.net/DTD/sodipodi-0.dtd"
   xmlns="http://www.w3.org/2000/svg"
   xmlns:svg="http://www.w3.org/2000/svg">
  <defs
     id="defs225" />
  <sodipodi:namedview
     id="namedview223"
     pagecolor="#ffffff"
     bordercolor="#666666"
     borderopacity="1.0"
     inkscape:showpageshadow="2"
     inkscape:pageopacity="0.0"
     inkscape:pagecheckerboard="0"
     inkscape:deskcolor="#d1d1d1"
     showgrid="false"
     inkscape:zoom="8.137931"
     inkscape:cx="15.974576"
     inkscape:cy="14.5"
     inkscape:window-width="1309"
     inkscape:window-height="456"
     inkscape:window-x="0"
     inkscape:window-y="38"
     inkscape:window-maximized="0"
     inkscape:current-layer="svg221" />
  <path
     d="M.11 5.294v-.825L4.232 6.53v.825z"
     fill="#9f9a66"
     id="path207" />
  <path
     d="M8.358 5.294L4.233 7.356v-.825L8.358 4.47z"
     fill="#837e4f"
     id="path209" />
  <path
     d="M4.233 6.531L.11 4.47l.824-1.24 3.3 1.65z"
     fill="#95ca64"
     id="path211" />
  <path
     d="M8.358 4.469L4.233 6.53V4.88l3.3-1.65z"
     fill="#32b030"
     id="path213" />
  <path
     d="M7.533 3.231l-3.3 1.65-3.299-1.65 3.3-1.65z"
     fill="#82d431"
     id="path215" />
  <path
     d="M8.358 4.469v.825L4.233 7.356.11 5.294v-.825L.934 3.23l3.3-1.65 3.299 1.65z"
     fill="none"
     stroke="#000"
     stroke-width=".218"
     id="path217" />
  <path
     d="M3.453 3.505l-.03-1.685h-.838L4.234.135 5.883 1.85h-.84l.03 1.655z"
     fill="#52b384"
     stroke="#000"
     stroke-width=".188"
     id="path219" />
</svg>
