<?xml version="1.0" encoding="UTF-8" standalone="no"?>
<svg
   width="32"
   height="29"
   viewBox="0 0 8.467 7.673"
   version="1.1"
   id="svg8658"
   sodipodi:docname="rect-select.svg"
   inkscape:version="1.2.2 (b0a84865, 2022-12-01)"
   inkscape:export-filename="../../assets/editor/icons/rect-select.png"
   inkscape:export-xdpi="192"
   inkscape:export-ydpi="192"
   xmlns:inkscape="http://www.inkscape.org/namespaces/inkscape"
   xmlns:sodipodi="http://sodipodi.sourceforge.net/DTD/sodipodi-0.dtd"
   xmlns="http://www.w3.org/2000/svg"
   xmlns:svg="http://www.w3.org/2000/svg"
   xmlns:rdf="http://www.w3.org/1999/02/22-rdf-syntax-ns#"
   xmlns:cc="http://creativecommons.org/ns#"
   xmlns:dc="http://purl.org/dc/elements/1.1/">
  <metadata
     id="metadata8664">
    <rdf:RDF>
      <cc:Work
         rdf:about="">
        <dc:format>image/svg+xml</dc:format>
        <dc:type
           rdf:resource="http://purl.org/dc/dcmitype/StillImage" />
      </cc:Work>
    </rdf:RDF>
  </metadata>
  <defs
     id="defs8662" />
  <sodipodi:namedview
     inkscape:document-rotation="0"
     pagecolor="#5a5a5a"
     bordercolor="#666666"
     borderopacity="1"
     objecttolerance="10"
     gridtolerance="10"
     guidetolerance="10"
     inkscape:pageopacity="0"
     inkscape:pageshadow="2"
     inkscape:window-width="1407"
     inkscape:window-height="686"
     id="namedview8660"
     showgrid="false"
     inkscape:zoom="6.8764531"
     inkscape:cx="5.2352571"
     inkscape:cy="17.887128"
     inkscape:window-x="27"
     inkscape:window-y="53"
     inkscape:window-maximized="0"
     inkscape:current-layer="svg8658"
     inkscape:showpageshadow="2"
     inkscape:pagecheckerboard="0"
     inkscape:deskcolor="#d1d1d1" />
  <path
     d="M 0.5291875,-1.09375e-4 V 0.67340192 1.3469132 H 1.2026989 V 0.67340192 H 1.8762102 V -1.09375e-4 Z m 2.020534,0 V 0.67340192 H 3.8967443 V -1.09375e-4 Z m 2.0205342,0 V 0.67340192 H 5.9172785 V -1.09375e-4 Z m 2.0205341,0 V 0.67340192 H 7.2643012 V 1.3469132 H 7.9378125 V 0.67340193 -1.09375e-4 H 7.2643012 Z M 0.5291875,2.0204246 V 3.3674473 H 1.2026989 V 2.0204246 Z m 6.7351137,0 V 3.3674473 H 7.9378125 V 2.0204246 Z M 0.5291875,4.0409586 V 5.3879814 H 1.2026989 V 4.0409586 Z m 6.7351137,0 V 5.3879814 H 7.9378125 V 4.0409586 Z m -6.7351137,2.020534 v 1.347023 H 1.2026989 1.8762102 V 6.7350043 H 1.2026989 V 6.0614926 Z m 6.7351137,0 V 6.7350043 H 6.5907898 V 7.4085156 H 7.2643012 7.9378125 V 6.7350043 6.0614926 Z M 2.5497215,6.7350043 V 7.4085156 H 3.8967443 V 6.7350043 Z m 2.0205342,0 V 7.4085156 H 5.9172785 V 6.7350043 Z"
     style="display:inline;opacity:1;fill:#639196;fill-opacity:1;stroke:none;stroke-width:0.336013;stroke-linecap:butt;stroke-miterlimit:4;stroke-dasharray:0.672025, 0.336013;stroke-dashoffset:0;stroke-opacity:1"
     id="rect2771" />
</svg>
