<?xml version="1.0" encoding="UTF-8" standalone="no"?>
<svg
   inkscape:version="1.2.2 (b0a84865, 2022-12-01)"
   sodipodi:docname="rotate-ccw.svg"
   id="svg4022"
   version="1.1"
   width="32"
   height="21"
   viewBox="0 0 8.467 5.556"
   inkscape:export-filename="../../assets/editor/icons/rotate-ccw.png"
   inkscape:export-xdpi="192"
   inkscape:export-ydpi="192"
   xmlns:inkscape="http://www.inkscape.org/namespaces/inkscape"
   xmlns:sodipodi="http://sodipodi.sourceforge.net/DTD/sodipodi-0.dtd"
   xmlns="http://www.w3.org/2000/svg"
   xmlns:svg="http://www.w3.org/2000/svg"
   xmlns:rdf="http://www.w3.org/1999/02/22-rdf-syntax-ns#"
   xmlns:cc="http://creativecommons.org/ns#"
   xmlns:dc="http://purl.org/dc/elements/1.1/">
  <metadata
     id="metadata4026">
    <rdf:RDF>
      <cc:Work
         rdf:about="">
        <dc:format>image/svg+xml</dc:format>
        <dc:type
           rdf:resource="http://purl.org/dc/dcmitype/StillImage" />
      </cc:Work>
    </rdf:RDF>
  </metadata>
  <sodipodi:namedview
     inkscape:current-layer="svg4022"
     inkscape:window-maximized="0"
     inkscape:window-y="38"
     inkscape:window-x="0"
     inkscape:cy="10.552066"
     inkscape:cx="15.41157"
     inkscape:zoom="7.202381"
     showgrid="false"
     id="namedview4024"
     inkscape:window-height="480"
     inkscape:window-width="736"
     inkscape:pageshadow="2"
     inkscape:pageopacity="0"
     guidetolerance="10"
     gridtolerance="10"
     objecttolerance="10"
     borderopacity="1"
     bordercolor="#666666"
     pagecolor="#ffffff"
     inkscape:showpageshadow="2"
     inkscape:pagecheckerboard="0"
     inkscape:deskcolor="#d1d1d1" />
  <defs
     id="defs4016">
    <filter
       color-interpolation-filters="sRGB"
       height="1.1401566"
       y="-0.070078318"
       width="1.0758541"
       x="-0.037927064"
       id="a">
      <feGaussianBlur
         id="feGaussianBlur4013"
         stdDeviation=".605" />
    </filter>
  </defs>
  <path
     id="path4018"
     filter="url(#a)"
     fill-opacity="0.464"
     d="M 27.24,5.074 A 10.36,18.894 89.993 0 0 13.663,5.031 10.36,18.894 89.993 0 0 2.292,17.775 10.36,18.894 89.993 0 0 24.777,24.791 l -1.77,-4.021 a 6.23,11.313 89.81 0 1 -12.57,-3.021 6.23,11.313 89.81 0 1 4.422,-8.464 6.23,11.313 89.81 0 1 14.428,1.598 l -3.533,0.73 11.258,5.477 2.725,-8.363 -3.194,0.659 A 10.36,18.894 89.993 0 0 27.241,5.075 Z"
     transform="matrix(0.20555,0,0,-0.20555,-6.0264134e-4,6.3165386)" />
  <path
     id="path4020"
     stroke-dashoffset="17"
     stroke-linecap="round"
     stroke-width="0.259"
     stroke="#000000"
     fill="#37ce8c"
     d="m 5.6933485,4.5073089 a 3.884,2.13 0.007 0 1 -2.79,0.008 3.884,2.13 0.007 0 1 -2.33799996,-2.62 3.884,2.13 0.007 0 1 4.62199996,-1.44199997 l -0.364,0.82699997 a 2.325,1.28 0.19 0 0 -2.584,0.62 2.325,1.28 0.19 0 0 0.91,1.74 2.325,1.28 0.19 0 0 2.9650001,-0.328 l -0.7260001,-0.15 2.3140001,-1.125 0.5599999,1.72 -0.6569999,-0.136 a 3.884,2.13 0.007 0 1 -1.9120001,0.885 z" />
</svg>
