<svg xmlns="http://www.w3.org/2000/svg" width="32" height="29" viewBox="0 0 8.467 7.673"><defs><filter height="1.153" y="-.076" width="1.205" x="-.103" id="a" color-interpolation-filters="sRGB"><feGaussianBlur stdDeviation=".613"/></filter><filter id="b" x="-.103" width="1.205" y="-.076" height="1.153" color-interpolation-filters="sRGB"><feGaussianBlur stdDeviation=".613"/></filter></defs><path d="M69.953 531.497l-4.475 7.436 1.686-.217-3.072 4.258 2.713-.555-3.918 4.985 5.894-.01.152 3.357 2.409.014-.11-3.373 5.979-.01-3.76-4.916 2.104.648-2.862-4.33 2.016.492z" transform="matrix(.26934 0 0 .26522 -15.736 -139.324)" opacity=".505" fill="none" stroke="#000" stroke-width="1.999" filter="url(#a)"/><path d="M2.76 1.404L1.555 3.376l.454-.058-.828 1.13.73-.148L.857 5.622l1.588-.002.041.89.649.004-.03-.895 1.61-.002-1.012-1.304.567.172-.771-1.149.543.13z" fill="none" stroke="#000" stroke-width=".534"/><path d="M2.485 6.531l.648.004-.036-1.092-.663-.019z" fill="#78572d"/><path d="M2.758 1.424L1.552 3.397l.454-.058-.827 1.13.73-.148L.854 5.643l3.858-.005L3.7 4.334l.566.172-.77-1.149.543.13z" fill="#426a14"/><path d="M2.759 1.734l-.91 1.508.383-.07-.718 1.154.503-.07-.885 1.342h.79l.454-1.437-.503.024.67-1.178-.359.07.622-.99z" opacity=".87" fill="#508222"/><path transform="translate(.3 .134) scale(.3303)" d="M15.304 2.818l-4.475 7.436 1.686-.217-3.073 4.258 2.713-.555-3.918 4.985 5.895-.01.152 3.357 2.408.014-.11-3.373 5.98-.01-3.76-4.916 2.103.648-2.861-4.33 2.015.492z" opacity=".505" fill="none" stroke="#000" stroke-width="1.999" filter="url(#b)"/><path d="M4.931.77L3.453 3.226l.557-.072-1.015 1.407.896-.183-1.294 1.646 1.947-.003.05 1.108.796.005-.036-1.114 1.974-.003-1.242-1.624.695.214-.945-1.43.666.162z" fill="none" stroke="#000" stroke-width=".66"/><path d="M4.594 7.155l.794.005-.043-1.36-.814-.023z" fill="#78572d"/><path d="M4.928.796L3.45 3.252l.557-.071-1.014 1.406.895-.184L2.594 6.05l4.731-.007L6.084 4.42l.694.214-.944-1.43.665.163z" fill="#426a14"/><path d="M4.93 1.182L3.814 3.06l.469-.088-.88 1.437.616-.088-1.086 1.673h.969l.557-1.79-.616.03.821-1.468-.44.088.763-1.232z" opacity=".87" fill="#508222"/></svg>